<svg xmlns="http://www.w3.org/2000/svg" xmlns:xlink="http://www.w3.org/1999/xlink" viewBox="0 0 68.106 32.642">
  <defs>
    <style>
      .cls-1 {
        fill: #fff;
      }

      .cls-2 {
        clip-path: url(#clip-path);
      }

      .cls-3 {
        clip-path: url(#clip-path-2);
      }
    </style>
    <clipPath id="clip-path">
      <rect id="Rectangle_2341" data-name="Rectangle 2341" class="cls-1" width="68.106" height="32.642" transform="translate(370 -228)"/>
    </clipPath>
    <clipPath id="clip-path-2">
      <rect id="Rectangle_2315" data-name="Rectangle 2315" class="cls-1" width="71.909" height="41.033"/>
    </clipPath>
  </defs>
  <g id="Mask_Group_63" data-name="Mask Group 63" class="cls-2" transform="translate(-370 228)">
    <g id="Group_1239" data-name="Group 1239" transform="translate(370.63 -226.993)">
      <g id="Group_1214" data-name="Group 1214" class="cls-3">
        <path id="Path_23658" data-name="Path 23658" class="cls-1" d="M2.817,60.4A1.852,1.852,0,0,0,3.4,61.861a1.9,1.9,0,0,0,1.4.584,2.064,2.064,0,0,0,1.459-3.5,1.9,1.9,0,0,0-1.4-.584,1.73,1.73,0,0,0-1.4.584A1.8,1.8,0,0,0,2.817,60.4M2,60.4a2.645,2.645,0,0,1,.817-1.985A2.779,2.779,0,0,1,4.8,57.6a2.882,2.882,0,0,1,1.985.817,2.818,2.818,0,0,1,0,3.969,2.917,2.917,0,0,1-2.043.817,2.753,2.753,0,0,1-1.868-.7A2.689,2.689,0,0,1,2,60.4" transform="translate(-0.833 -23.98)"/>
      </g>
      <g id="Group_1215" data-name="Group 1215" class="cls-3">
        <path id="Path_23659" data-name="Path 23659" class="cls-1" d="M14.927,61.161a1.265,1.265,0,0,0-.292-.817.786.786,0,0,0-.7-.292.967.967,0,0,0-.7.292,1.11,1.11,0,0,0-.292.759,1.265,1.265,0,0,0,.292.817.986.986,0,0,0,1.4,0,.9.9,0,0,0,.292-.759M13.059,56.9v2.918a1.342,1.342,0,0,1,1.051-.467,1.555,1.555,0,0,1,1.167.525,2,2,0,0,1,0,2.568,1.488,1.488,0,0,1-2.218.058v.35H12.3V56.9Z" transform="translate(-5.121 -23.689)"/>
      </g>
      <g id="Group_1216" data-name="Group 1216" class="cls-3">
        <path id="Path_23660" data-name="Path 23660" class="cls-1" d="M21.051,62.484a.77.77,0,0,0-.817-.642.526.526,0,0,0-.292.058c-.058.058-.175.058-.233.117l-.175.175c-.058.058-.058.175-.117.292Zm.817.642H19.417a.753.753,0,0,0,.292.642.8.8,0,0,0,.642.233,1.1,1.1,0,0,0,.467-.117,2.051,2.051,0,0,0,.409-.525l.642.35a3.237,3.237,0,0,1-.35.467,1.547,1.547,0,0,1-.35.292c-.117.058-.292.117-.409.175a1.285,1.285,0,0,1-.467.058,1.672,1.672,0,0,1-1.226-.467,1.923,1.923,0,0,1-.467-1.284,1.817,1.817,0,0,1,.467-1.284,1.471,1.471,0,0,1,1.226-.467,1.535,1.535,0,0,1,1.167.467,1.853,1.853,0,0,1,.409,1.342Z" transform="translate(-7.744 -25.479)"/>
      </g>
      <g id="Group_1217" data-name="Group 1217" class="cls-3">
        <path id="Path_23661" data-name="Path 23661" class="cls-1" d="M26.86,61.7l-.642.35c-.117-.233-.233-.292-.409-.292a.206.206,0,0,0-.233.233c0,.117.175.233.467.409a2.854,2.854,0,0,1,.876.525,1.037,1.037,0,0,1,.233.584,1.06,1.06,0,0,1-.35.817,1.146,1.146,0,0,1-.876.292A1.264,1.264,0,0,1,24.7,63.8l.642-.292a1.6,1.6,0,0,0,.233.292.429.429,0,0,0,.35.117c.292,0,.409-.117.409-.35a.6.6,0,0,0-.292-.409c-.058-.058-.175-.058-.233-.117s-.175-.058-.233-.117a1.067,1.067,0,0,1-.467-.35.815.815,0,0,1-.175-.525A1,1,0,0,1,25.984,61a1.394,1.394,0,0,1,.876.7" transform="translate(-10.283 -25.396)"/>
      </g>
      <g id="Group_1218" data-name="Group 1218" class="cls-3">
        <path id="Path_23662" data-name="Path 23662" class="cls-1" d="M30.034,63.27h-.759V59.885h.759ZM29.1,58.425a.619.619,0,0,1,.525-.525.416.416,0,0,1,.35.175.527.527,0,0,1-.35.876.416.416,0,0,1-.35-.175.353.353,0,0,1-.175-.35" transform="translate(-12.115 -24.105)"/>
      </g>
      <g id="Group_1219" data-name="Group 1219" class="cls-3">
        <path id="Path_23663" data-name="Path 23663" class="cls-1" d="M32.709,61.084v2.685H31.95V61.084H31.6v-.759h.35V59.1h.759v1.226h.817v.759Z" transform="translate(-13.156 -24.605)"/>
      </g>
      <g id="Group_1220" data-name="Group 1220" class="cls-3">
        <path id="Path_23664" data-name="Path 23664" class="cls-1" d="M46.144,60.919l-.817-1.809-.817,1.809Zm.35.759H44.159l-.584,1.342H42.7l2.685-5.72,2.568,5.72h-.876Z" transform="translate(-17.777 -23.855)"/>
      </g>
      <g id="Group_1221" data-name="Group 1221" class="cls-3">
        <path id="Path_23665" data-name="Path 23665" class="cls-1" d="M54.4,61.25V62.3a3.46,3.46,0,0,0-.467-.467,1.165,1.165,0,0,0-.525-.117,1,1,0,0,0-1.051,1.051,1.11,1.11,0,0,0,.292.759.834.834,0,0,0,.759.292,1.072,1.072,0,0,0,.992-.584v1.051a1.981,1.981,0,0,1-2.276-.292,1.832,1.832,0,0,1,0-2.568,1.849,1.849,0,0,1,1.342-.525,6.076,6.076,0,0,1,.934.35" transform="translate(-21.482 -25.354)"/>
      </g>
      <g id="Group_1222" data-name="Group 1222" class="cls-3">
        <path id="Path_23666" data-name="Path 23666" class="cls-1" d="M58.009,61.084v2.685H57.25V61.084H56.9v-.759h.35V59.1h.759v1.226h.642v.759Z" transform="translate(-23.689 -24.605)"/>
      </g>
      <g id="Group_1223" data-name="Group 1223" class="cls-3">
        <path id="Path_23667" data-name="Path 23667" class="cls-1" d="M61.234,63.27h-.759V59.885h.759ZM60.3,58.425a.5.5,0,1,1,.525.525.416.416,0,0,1-.35-.175.353.353,0,0,1-.175-.35" transform="translate(-25.104 -24.105)"/>
      </g>
      <g id="Group_1224" data-name="Group 1224" class="cls-3">
        <path id="Path_23668" data-name="Path 23668" class="cls-1" d="M63.517,62.809a1.265,1.265,0,0,0,.292.817,1.008,1.008,0,0,0,.759.292,1.229,1.229,0,0,0,.759-.292,1.155,1.155,0,0,0,.292-.817,1.265,1.265,0,0,0-.292-.817,1.008,1.008,0,0,0-.759-.292,1.229,1.229,0,0,0-.759.292,1.4,1.4,0,0,0-.292.817m-.817,0a1.811,1.811,0,0,1,.525-1.284,1.816,1.816,0,0,1,2.568,2.568,1.811,1.811,0,0,1-1.284.525,1.716,1.716,0,0,1-1.284-.525,1.63,1.63,0,0,1-.525-1.284" transform="translate(-26.103 -25.396)"/>
      </g>
      <g id="Group_1225" data-name="Group 1225" class="cls-3">
        <path id="Path_23669" data-name="Path 23669" class="cls-1" d="M69.8,61.117h.817v.292a1.341,1.341,0,0,1,1.868-.058,1.733,1.733,0,0,1,.292,1.051v2.1H71.96V62.576a1.676,1.676,0,0,0-.117-.7.629.629,0,0,0-.525-.175c-.233,0-.467.058-.525.233a1.64,1.64,0,0,0-.175.876v1.634H69.8V61.117Z" transform="translate(-29.059 -25.396)"/>
      </g>
      <g id="Group_1226" data-name="Group 1226" class="cls-3">
        <path id="Path_23670" data-name="Path 23670" class="cls-1" d="M82.9,58.042v.992a2.124,2.124,0,0,0-1.459-.584,1.73,1.73,0,0,0-1.4.584,2.116,2.116,0,0,0,0,2.918,1.9,1.9,0,0,0,1.4.584,2.957,2.957,0,0,0,.759-.117l.35-.175c.117-.058.233-.175.409-.292v.992a2.635,2.635,0,0,1-1.459.409,2.79,2.79,0,0,1-2.8-2.8,2.862,2.862,0,0,1,.7-1.868,2.8,2.8,0,0,1,2.16-.992,2.436,2.436,0,0,1,1.342.35" transform="translate(-32.765 -24.014)"/>
      </g>
      <g id="Group_1227" data-name="Group 1227" class="cls-3">
        <path id="Path_23671" data-name="Path 23671" class="cls-1" d="M87.417,62.809a1.265,1.265,0,0,0,.292.817,1.008,1.008,0,0,0,.759.292,1.229,1.229,0,0,0,.759-.292,1.155,1.155,0,0,0,.292-.817,1.265,1.265,0,0,0-.292-.817,1.008,1.008,0,0,0-.759-.292.967.967,0,0,0-.7.292,1.152,1.152,0,0,0-.35.817m-.817,0a1.811,1.811,0,0,1,.525-1.284,1.816,1.816,0,0,1,2.568,2.568,1.811,1.811,0,0,1-1.284.525,1.716,1.716,0,0,1-1.284-.525,1.63,1.63,0,0,1-.525-1.284" transform="translate(-36.053 -25.396)"/>
      </g>
      <g id="Group_1228" data-name="Group 1228" class="cls-3">
        <path id="Path_23672" data-name="Path 23672" class="cls-1" d="M94.217,62.809a1.687,1.687,0,0,0,.233.817.786.786,0,0,0,.7.292.967.967,0,0,0,.7-.292,1.265,1.265,0,0,0,.292-.817,1.11,1.11,0,0,0-.292-.759.986.986,0,0,0-1.4,0,1.173,1.173,0,0,0-.233.759m1.868-1.693H96.9V64.5h-.817v-.35a1.693,1.693,0,0,1-1.051.467,1.469,1.469,0,0,1-1.167-.525,2,2,0,0,1,0-2.568,1.488,1.488,0,0,1,2.218-.058Z" transform="translate(-38.884 -25.396)"/>
      </g>
      <g id="Group_1229" data-name="Group 1229" class="cls-3">
        <rect id="Rectangle_2330" data-name="Rectangle 2330" class="cls-1" width="0.759" height="5.895" transform="translate(58.718 33.211)"/>
      </g>
      <g id="Group_1230" data-name="Group 1230" class="cls-3">
        <path id="Path_23673" data-name="Path 23673" class="cls-1" d="M103.975,63.27h-.759V59.885h.759Zm-.876-4.845a.619.619,0,0,1,.525-.525.416.416,0,0,1,.35.175.5.5,0,1,1-.7.7c-.175-.058-.175-.175-.175-.35" transform="translate(-42.923 -24.105)"/>
      </g>
      <g id="Group_1231" data-name="Group 1231" class="cls-3">
        <path id="Path_23674" data-name="Path 23674" class="cls-1" d="M106.467,61.084v2.685h-.817V61.084h-.35v-.759h.35V59.1h.817v1.226h.584v.759Z" transform="translate(-43.839 -24.605)"/>
      </g>
      <g id="Group_1232" data-name="Group 1232" class="cls-3">
        <path id="Path_23675" data-name="Path 23675" class="cls-1" d="M109.675,63.27h-.759V59.885h.759Zm-.876-4.845a.5.5,0,1,1,.525.525.416.416,0,0,1-.35-.175.353.353,0,0,1-.175-.35" transform="translate(-45.296 -24.105)"/>
      </g>
      <g id="Group_1233" data-name="Group 1233" class="cls-3">
        <path id="Path_23676" data-name="Path 23676" class="cls-1" d="M111.959,62.809a1.265,1.265,0,0,0,.292.817,1.008,1.008,0,0,0,.759.292,1.229,1.229,0,0,0,.759-.292,1.155,1.155,0,0,0,.292-.817,1.265,1.265,0,0,0-.292-.817,1.008,1.008,0,0,0-.759-.292.967.967,0,0,0-.7.292,1.152,1.152,0,0,0-.35.817m-.759,0a1.811,1.811,0,0,1,.525-1.284,1.816,1.816,0,0,1,2.568,2.568,1.811,1.811,0,0,1-1.284.525,1.716,1.716,0,0,1-1.284-.525,1.63,1.63,0,0,1-.525-1.284" transform="translate(-46.295 -25.396)"/>
      </g>
      <g id="Group_1234" data-name="Group 1234" class="cls-3">
        <path id="Path_23677" data-name="Path 23677" class="cls-1" d="M118.2,61.117h.817v.292a1.341,1.341,0,0,1,1.868-.058,1.733,1.733,0,0,1,.292,1.051v2.1h-.817V62.576a1.677,1.677,0,0,0-.117-.7.629.629,0,0,0-.525-.175c-.233,0-.467.058-.525.233a1.64,1.64,0,0,0-.175.876v1.634H118.2V61.117Z" transform="translate(-49.209 -25.396)"/>
      </g>
      <g id="Group_1235" data-name="Group 1235" class="cls-3">
        <path id="Path_23678" data-name="Path 23678" class="cls-1" d="M21.182,12.2a11.44,11.44,0,1,0,11.5,11.44,11.409,11.409,0,0,0-11.5-11.44m.058,18.794a7.529,7.529,0,1,1,7.529-7.529,7.548,7.548,0,0,1-7.529,7.529" transform="translate(-4.08 -5.079)"/>
      </g>
      <g id="Group_1236" data-name="Group 1236" class="cls-3">
        <path id="Path_23679" data-name="Path 23679" class="cls-1" d="M57.665,16.87,53.7,25.917h7.938ZM52.587,28.427l-2.51,5.6H47.1L57.665,10.8,68.229,34.03H65.252l-2.51-5.6Z" transform="translate(-19.609 -4.496)"/>
      </g>
      <g id="Group_1237" data-name="Group 1237" class="cls-3">
        <path id="Path_23680" data-name="Path 23680" class="cls-1" d="M100.711,16.745a10.1,10.1,0,0,0-7.471-3.5,10.329,10.329,0,0,0-10.1,10.273A9.587,9.587,0,0,0,86.119,30.4,10.886,10.886,0,0,0,93.24,33.5a10.746,10.746,0,0,0,7.471-3.385v1.926a11.54,11.54,0,0,1-7.354,2.8A11.675,11.675,0,0,1,81.8,23.4,11.66,11.66,0,0,1,93.415,11.9a10.837,10.837,0,0,1,7.354,2.918v1.926Z" transform="translate(-34.055 -4.954)"/>
      </g>
      <g id="Group_1238" data-name="Group 1238" class="cls-3">
        <path id="Path_23681" data-name="Path 23681" class="cls-1" d="M26.616,0C15.117,0,5.136,3.677,0,9.047H6.245c5.487-4.261,14.242-7,24.164-7a44.826,44.826,0,0,1,18.97,3.911C43.834,2.276,35.721,0,26.616,0"/>
      </g>
    </g>
  </g>
</svg>
